<mxfile host="Electron" modified="2024-01-17T14:48:34.397Z" agent="Mozilla/5.0 (X11; Linux x86_64) AppleWebKit/537.36 (KHTML, like Gecko) draw.io/22.0.2 Chrome/114.0.5735.289 Electron/25.8.4 Safari/537.36" etag="7u4ZyB1ENC4clxtGpweE" version="22.0.2" type="device">
  <diagram name="Page-1" id="hVgfvZ21y69fIVJHFWOQ">
    <mxGraphModel dx="650" dy="1501" grid="1" gridSize="10" guides="1" tooltips="1" connect="1" arrows="1" fold="1" page="1" pageScale="1" pageWidth="850" pageHeight="1100" math="0" shadow="0">
      <root>
        <mxCell id="0" />
        <mxCell id="1" parent="0" />
        <mxCell id="ypyRu91fWhCVWM4cFjnS-6" value="Fornitrice" style="whiteSpace=wrap;html=1;align=center;" parent="1" vertex="1">
          <mxGeometry x="142" y="161.10000000000002" width="130" height="60" as="geometry" />
        </mxCell>
        <mxCell id="ypyRu91fWhCVWM4cFjnS-7" value="Rivendita" style="whiteSpace=wrap;html=1;align=center;" parent="1" vertex="1">
          <mxGeometry x="337" y="161.10000000000002" width="130" height="60" as="geometry" />
        </mxCell>
        <mxCell id="ypyRu91fWhCVWM4cFjnS-8" value="" style="ellipse;whiteSpace=wrap;html=1;aspect=fixed;fillColor=#121111;" parent="1" vertex="1">
          <mxGeometry x="122" y="260" width="10" height="10" as="geometry" />
        </mxCell>
        <mxCell id="ypyRu91fWhCVWM4cFjnS-9" value="" style="ellipse;whiteSpace=wrap;html=1;aspect=fixed;" parent="1" vertex="1">
          <mxGeometry x="180" y="256.1" width="10" height="10" as="geometry" />
        </mxCell>
        <mxCell id="ypyRu91fWhCVWM4cFjnS-10" value="" style="endArrow=none;html=1;rounded=0;exitX=1;exitY=0;exitDx=0;exitDy=0;" parent="1" source="ypyRu91fWhCVWM4cFjnS-8" target="ypyRu91fWhCVWM4cFjnS-6" edge="1">
          <mxGeometry width="50" height="50" relative="1" as="geometry">
            <mxPoint x="52" y="201.10000000000002" as="sourcePoint" />
            <mxPoint x="102" y="151.10000000000002" as="targetPoint" />
          </mxGeometry>
        </mxCell>
        <mxCell id="ypyRu91fWhCVWM4cFjnS-11" value="" style="endArrow=none;html=1;rounded=0;exitX=1;exitY=0;exitDx=0;exitDy=0;" parent="1" source="ypyRu91fWhCVWM4cFjnS-9" target="ypyRu91fWhCVWM4cFjnS-6" edge="1">
          <mxGeometry width="50" height="50" relative="1" as="geometry">
            <mxPoint x="112" y="201.10000000000002" as="sourcePoint" />
            <mxPoint x="152" y="201.10000000000002" as="targetPoint" />
          </mxGeometry>
        </mxCell>
        <mxCell id="ypyRu91fWhCVWM4cFjnS-12" value="Codice fornitore" style="text;html=1;strokeColor=none;fillColor=none;align=center;verticalAlign=middle;whiteSpace=wrap;rounded=0;" parent="1" vertex="1">
          <mxGeometry x="102" y="275" width="50" height="25" as="geometry" />
        </mxCell>
        <mxCell id="ypyRu91fWhCVWM4cFjnS-13" value="CF gestore" style="text;html=1;strokeColor=none;fillColor=none;align=center;verticalAlign=middle;whiteSpace=wrap;rounded=0;" parent="1" vertex="1">
          <mxGeometry x="162" y="270" width="60" height="30" as="geometry" />
        </mxCell>
        <mxCell id="ypyRu91fWhCVWM4cFjnS-14" value="" style="endArrow=none;html=1;rounded=0;exitX=0.941;exitY=0.034;exitDx=0;exitDy=0;exitPerimeter=0;" parent="1" source="ypyRu91fWhCVWM4cFjnS-17" edge="1">
          <mxGeometry width="50" height="50" relative="1" as="geometry">
            <mxPoint x="467" y="190.91000000000003" as="sourcePoint" />
            <mxPoint x="460" y="120" as="targetPoint" />
          </mxGeometry>
        </mxCell>
        <mxCell id="ypyRu91fWhCVWM4cFjnS-15" value="" style="endArrow=none;html=1;rounded=0;exitX=1;exitY=0.25;exitDx=0;exitDy=0;" parent="1" source="ypyRu91fWhCVWM4cFjnS-7" edge="1">
          <mxGeometry width="50" height="50" relative="1" as="geometry">
            <mxPoint x="437" y="136.10000000000002" as="sourcePoint" />
            <mxPoint x="490" y="156" as="targetPoint" />
          </mxGeometry>
        </mxCell>
        <mxCell id="ypyRu91fWhCVWM4cFjnS-16" value="" style="ellipse;whiteSpace=wrap;html=1;aspect=fixed;" parent="1" vertex="1">
          <mxGeometry x="490" y="151.10000000000002" width="10" height="10" as="geometry" />
        </mxCell>
        <mxCell id="ypyRu91fWhCVWM4cFjnS-18" value="P. IVA" style="text;html=1;strokeColor=none;fillColor=none;align=center;verticalAlign=middle;whiteSpace=wrap;rounded=0;" parent="1" vertex="1">
          <mxGeometry x="456" y="101.10000000000002" width="60" height="30" as="geometry" />
        </mxCell>
        <mxCell id="ypyRu91fWhCVWM4cFjnS-19" value="Sede" style="text;html=1;strokeColor=none;fillColor=none;align=center;verticalAlign=middle;whiteSpace=wrap;rounded=0;" parent="1" vertex="1">
          <mxGeometry x="485" y="140.10000000000002" width="60" height="30" as="geometry" />
        </mxCell>
        <mxCell id="ypyRu91fWhCVWM4cFjnS-20" value="" style="endArrow=none;html=1;rounded=0;entryX=0.25;entryY=1;entryDx=0;entryDy=0;exitX=1;exitY=0;exitDx=0;exitDy=0;" parent="1" source="ypyRu91fWhCVWM4cFjnS-22" target="ypyRu91fWhCVWM4cFjnS-28" edge="1">
          <mxGeometry width="50" height="50" relative="1" as="geometry">
            <mxPoint x="239" y="476.83000000000004" as="sourcePoint" />
            <mxPoint x="292.96000000000004" y="455.37" as="targetPoint" />
          </mxGeometry>
        </mxCell>
        <mxCell id="ypyRu91fWhCVWM4cFjnS-21" value="" style="endArrow=none;html=1;rounded=0;" parent="1" source="ypyRu91fWhCVWM4cFjnS-23" target="ypyRu91fWhCVWM4cFjnS-28" edge="1">
          <mxGeometry width="50" height="50" relative="1" as="geometry">
            <mxPoint x="357" y="481.83000000000004" as="sourcePoint" />
            <mxPoint x="345.5355339059215" y="460.3655339059218" as="targetPoint" />
          </mxGeometry>
        </mxCell>
        <mxCell id="ypyRu91fWhCVWM4cFjnS-22" value="" style="ellipse;whiteSpace=wrap;html=1;aspect=fixed;" parent="1" vertex="1">
          <mxGeometry x="232" y="476.83000000000004" width="10" height="10" as="geometry" />
        </mxCell>
        <mxCell id="ypyRu91fWhCVWM4cFjnS-23" value="" style="ellipse;whiteSpace=wrap;html=1;aspect=fixed;" parent="1" vertex="1">
          <mxGeometry x="182" y="411.1" width="10" height="10" as="geometry" />
        </mxCell>
        <mxCell id="ypyRu91fWhCVWM4cFjnS-24" value="Spedizione" style="text;html=1;strokeColor=none;fillColor=none;align=center;verticalAlign=middle;whiteSpace=wrap;rounded=0;fontSize=10;" parent="1" vertex="1">
          <mxGeometry x="172" y="471.83000000000004" width="60" height="30" as="geometry" />
        </mxCell>
        <mxCell id="ypyRu91fWhCVWM4cFjnS-25" value="Fatturazione" style="text;html=1;strokeColor=none;fillColor=none;align=center;verticalAlign=middle;whiteSpace=wrap;rounded=0;fontSize=10;" parent="1" vertex="1">
          <mxGeometry x="122" y="401.1" width="60" height="30" as="geometry" />
        </mxCell>
        <mxCell id="ypyRu91fWhCVWM4cFjnS-26" value="locazione" style="shape=rhombus;perimeter=rhombusPerimeter;whiteSpace=wrap;html=1;align=center;" parent="1" vertex="1">
          <mxGeometry x="247" y="266.1" width="120" height="60" as="geometry" />
        </mxCell>
        <mxCell id="ypyRu91fWhCVWM4cFjnS-27" value="" style="endArrow=none;html=1;rounded=0;entryX=0.25;entryY=1;entryDx=0;entryDy=0;exitX=0.5;exitY=0;exitDx=0;exitDy=0;edgeStyle=orthogonalEdgeStyle;" parent="1" source="ypyRu91fWhCVWM4cFjnS-26" target="ypyRu91fWhCVWM4cFjnS-7" edge="1">
          <mxGeometry width="50" height="50" relative="1" as="geometry">
            <mxPoint x="332" y="291.1" as="sourcePoint" />
            <mxPoint x="382" y="241.10000000000002" as="targetPoint" />
          </mxGeometry>
        </mxCell>
        <mxCell id="ypyRu91fWhCVWM4cFjnS-28" value="Indirizzo" style="whiteSpace=wrap;html=1;align=center;" parent="1" vertex="1">
          <mxGeometry x="242" y="386.1" width="130" height="60" as="geometry" />
        </mxCell>
        <mxCell id="ypyRu91fWhCVWM4cFjnS-29" value="" style="endArrow=none;html=1;rounded=0;entryX=0.5;entryY=1;entryDx=0;entryDy=0;exitX=0.5;exitY=0;exitDx=0;exitDy=0;" parent="1" source="ypyRu91fWhCVWM4cFjnS-28" target="ypyRu91fWhCVWM4cFjnS-26" edge="1">
          <mxGeometry width="50" height="50" relative="1" as="geometry">
            <mxPoint x="292" y="386.1" as="sourcePoint" />
            <mxPoint x="342" y="336.1" as="targetPoint" />
          </mxGeometry>
        </mxCell>
        <mxCell id="ypyRu91fWhCVWM4cFjnS-40" value="Recapito" style="shape=rhombus;perimeter=rhombusPerimeter;whiteSpace=wrap;html=1;align=center;" parent="1" vertex="1">
          <mxGeometry x="502" y="40" width="120" height="60" as="geometry" />
        </mxCell>
        <mxCell id="ypyRu91fWhCVWM4cFjnS-41" value="Contatto" style="whiteSpace=wrap;html=1;align=center;" parent="1" vertex="1">
          <mxGeometry x="656.25" y="121.10000000000002" width="130" height="60" as="geometry" />
        </mxCell>
        <mxCell id="ypyRu91fWhCVWM4cFjnS-42" value="" style="endArrow=none;html=1;rounded=0;edgeStyle=orthogonalEdgeStyle;" parent="1" source="ypyRu91fWhCVWM4cFjnS-7" target="ypyRu91fWhCVWM4cFjnS-40" edge="1">
          <mxGeometry width="50" height="50" relative="1" as="geometry">
            <mxPoint x="817.46" y="125.70000000000005" as="sourcePoint" />
            <mxPoint x="802.0019847328242" y="77.10000000000002" as="targetPoint" />
            <Array as="points">
              <mxPoint x="430" y="70" />
            </Array>
          </mxGeometry>
        </mxCell>
        <mxCell id="ypyRu91fWhCVWM4cFjnS-43" value="" style="endArrow=none;html=1;rounded=0;" parent="1" source="ypyRu91fWhCVWM4cFjnS-46" target="ypyRu91fWhCVWM4cFjnS-41" edge="1">
          <mxGeometry width="50" height="50" relative="1" as="geometry">
            <mxPoint x="786" y="221.10000000000002" as="sourcePoint" />
            <mxPoint x="711.5324473349356" y="185.37" as="targetPoint" />
          </mxGeometry>
        </mxCell>
        <mxCell id="ypyRu91fWhCVWM4cFjnS-44" value="" style="ellipse;whiteSpace=wrap;html=1;aspect=fixed;" parent="1" vertex="1">
          <mxGeometry x="678" y="211.10000000000002" width="10" height="10" as="geometry" />
        </mxCell>
        <mxCell id="ypyRu91fWhCVWM4cFjnS-45" value="" style="endArrow=none;html=1;rounded=0;entryX=1;entryY=1;entryDx=0;entryDy=0;" parent="1" target="ypyRu91fWhCVWM4cFjnS-46" edge="1">
          <mxGeometry width="50" height="50" relative="1" as="geometry">
            <mxPoint x="722" y="211.10000000000002" as="sourcePoint" />
            <mxPoint x="711" y="190.10000000000002" as="targetPoint" />
          </mxGeometry>
        </mxCell>
        <mxCell id="ypyRu91fWhCVWM4cFjnS-46" value="" style="ellipse;whiteSpace=wrap;html=1;aspect=fixed;" parent="1" vertex="1">
          <mxGeometry x="722" y="211.10000000000002" width="10" height="10" as="geometry" />
        </mxCell>
        <mxCell id="ypyRu91fWhCVWM4cFjnS-47" value="Telefono" style="text;html=1;strokeColor=none;fillColor=none;align=center;verticalAlign=middle;whiteSpace=wrap;rounded=0;fontSize=10;" parent="1" vertex="1">
          <mxGeometry x="642" y="211.10000000000002" width="60" height="30" as="geometry" />
        </mxCell>
        <mxCell id="ypyRu91fWhCVWM4cFjnS-48" value="Cellulare" style="text;html=1;strokeColor=none;fillColor=none;align=center;verticalAlign=middle;whiteSpace=wrap;rounded=0;fontSize=10;" parent="1" vertex="1">
          <mxGeometry x="728.5" y="211.10000000000002" width="60" height="30" as="geometry" />
        </mxCell>
        <mxCell id="ypyRu91fWhCVWM4cFjnS-49" value="" style="endArrow=none;html=1;rounded=0;exitX=0.5;exitY=1;exitDx=0;exitDy=0;" parent="1" source="ypyRu91fWhCVWM4cFjnS-50" target="ypyRu91fWhCVWM4cFjnS-41" edge="1">
          <mxGeometry width="50" height="50" relative="1" as="geometry">
            <mxPoint x="781.5" y="102.5" as="sourcePoint" />
            <mxPoint x="781.5" y="102.5" as="targetPoint" />
          </mxGeometry>
        </mxCell>
        <mxCell id="ypyRu91fWhCVWM4cFjnS-50" value="" style="ellipse;whiteSpace=wrap;html=1;aspect=fixed;" parent="1" vertex="1">
          <mxGeometry x="716.25" y="80" width="10" height="10" as="geometry" />
        </mxCell>
        <mxCell id="ypyRu91fWhCVWM4cFjnS-51" value="Email" style="text;html=1;strokeColor=none;fillColor=none;align=center;verticalAlign=middle;whiteSpace=wrap;rounded=0;fontSize=10;" parent="1" vertex="1">
          <mxGeometry x="688" y="55" width="60" height="30" as="geometry" />
        </mxCell>
        <mxCell id="ypyRu91fWhCVWM4cFjnS-52" value="" style="endArrow=none;html=1;rounded=0;edgeStyle=orthogonalEdgeStyle;" parent="1" source="ypyRu91fWhCVWM4cFjnS-41" target="ypyRu91fWhCVWM4cFjnS-40" edge="1">
          <mxGeometry width="50" height="50" relative="1" as="geometry">
            <mxPoint x="661.46" y="145" as="sourcePoint" />
            <mxPoint x="646.46" y="96" as="targetPoint" />
          </mxGeometry>
        </mxCell>
        <mxCell id="ypyRu91fWhCVWM4cFjnS-53" value="" style="endArrow=none;html=1;rounded=0;exitX=0.75;exitY=0;exitDx=0;exitDy=0;" parent="1" source="ypyRu91fWhCVWM4cFjnS-47" target="ypyRu91fWhCVWM4cFjnS-41" edge="1">
          <mxGeometry width="50" height="50" relative="1" as="geometry">
            <mxPoint x="582" y="150" as="sourcePoint" />
            <mxPoint x="727.5" y="192.5" as="targetPoint" />
          </mxGeometry>
        </mxCell>
        <mxCell id="ypyRu91fWhCVWM4cFjnS-54" value="" style="endArrow=none;html=1;rounded=0;edgeStyle=orthogonalEdgeStyle;entryX=0;entryY=0.5;entryDx=0;entryDy=0;" parent="1" target="ypyRu91fWhCVWM4cFjnS-55" edge="1">
          <mxGeometry width="50" height="50" relative="1" as="geometry">
            <mxPoint x="202" y="425" as="sourcePoint" />
            <mxPoint x="322" y="365" as="targetPoint" />
            <Array as="points">
              <mxPoint x="202" y="360" />
            </Array>
          </mxGeometry>
        </mxCell>
        <mxCell id="ypyRu91fWhCVWM4cFjnS-55" value="" style="ellipse;whiteSpace=wrap;html=1;aspect=fixed;fillColor=#121111;" parent="1" vertex="1">
          <mxGeometry x="317" y="355" width="10" height="10" as="geometry" />
        </mxCell>
        <mxCell id="ypyRu91fWhCVWM4cFjnS-58" value="" style="endArrow=none;html=1;rounded=0;exitX=1;exitY=0;exitDx=0;exitDy=0;edgeStyle=orthogonalEdgeStyle;" parent="1" source="ypyRu91fWhCVWM4cFjnS-59" edge="1">
          <mxGeometry width="50" height="50" relative="1" as="geometry">
            <mxPoint x="602" y="130" as="sourcePoint" />
            <mxPoint x="730" y="100" as="targetPoint" />
            <Array as="points">
              <mxPoint x="634" y="163" />
              <mxPoint x="634" y="100" />
            </Array>
          </mxGeometry>
        </mxCell>
        <mxCell id="ypyRu91fWhCVWM4cFjnS-59" value="" style="ellipse;whiteSpace=wrap;html=1;aspect=fixed;fillColor=#000000;" parent="1" vertex="1">
          <mxGeometry x="629" y="161.1" width="10" height="10" as="geometry" />
        </mxCell>
        <mxCell id="ypyRu91fWhCVWM4cFjnS-61" value="effettua" style="shape=rhombus;perimeter=rhombusPerimeter;whiteSpace=wrap;html=1;align=center;" parent="1" vertex="1">
          <mxGeometry x="466.75" y="256.09999999999997" width="120" height="60" as="geometry" />
        </mxCell>
        <mxCell id="ypyRu91fWhCVWM4cFjnS-63" value="ordine" style="whiteSpace=wrap;html=1;align=center;" parent="1" vertex="1">
          <mxGeometry x="461.75" y="376.1" width="130" height="60" as="geometry" />
        </mxCell>
        <mxCell id="ypyRu91fWhCVWM4cFjnS-64" value="" style="endArrow=none;html=1;rounded=0;entryX=0.5;entryY=1;entryDx=0;entryDy=0;" parent="1" source="ypyRu91fWhCVWM4cFjnS-63" target="ypyRu91fWhCVWM4cFjnS-61" edge="1">
          <mxGeometry width="50" height="50" relative="1" as="geometry">
            <mxPoint x="551.75" y="269.9" as="sourcePoint" />
            <mxPoint x="516.75" y="224.9" as="targetPoint" />
          </mxGeometry>
        </mxCell>
        <mxCell id="ypyRu91fWhCVWM4cFjnS-65" value="contenuto" style="shape=rhombus;perimeter=rhombusPerimeter;whiteSpace=wrap;html=1;align=center;" parent="1" vertex="1">
          <mxGeometry x="466" y="501.83" width="120" height="60" as="geometry" />
        </mxCell>
        <mxCell id="ypyRu91fWhCVWM4cFjnS-66" value="Pianta" style="whiteSpace=wrap;html=1;align=center;" parent="1" vertex="1">
          <mxGeometry x="36" y="590" width="140" height="60" as="geometry" />
        </mxCell>
        <mxCell id="ypyRu91fWhCVWM4cFjnS-67" value="Istanza di" style="shape=rhombus;perimeter=rhombusPerimeter;whiteSpace=wrap;html=1;align=center;" parent="1" vertex="1">
          <mxGeometry x="256" y="590" width="120" height="60" as="geometry" />
        </mxCell>
        <mxCell id="ypyRu91fWhCVWM4cFjnS-68" value="Specie" style="whiteSpace=wrap;html=1;align=center;" parent="1" vertex="1">
          <mxGeometry x="456" y="590" width="140" height="60" as="geometry" />
        </mxCell>
        <mxCell id="ypyRu91fWhCVWM4cFjnS-69" value="" style="endArrow=none;html=1;rounded=0;" parent="1" source="ypyRu91fWhCVWM4cFjnS-66" target="ypyRu91fWhCVWM4cFjnS-67" edge="1">
          <mxGeometry width="50" height="50" relative="1" as="geometry">
            <mxPoint x="166" y="790" as="sourcePoint" />
            <mxPoint x="216" y="740" as="targetPoint" />
          </mxGeometry>
        </mxCell>
        <mxCell id="ypyRu91fWhCVWM4cFjnS-70" value="" style="endArrow=none;html=1;rounded=0;" parent="1" source="ypyRu91fWhCVWM4cFjnS-67" target="ypyRu91fWhCVWM4cFjnS-68" edge="1">
          <mxGeometry width="50" height="50" relative="1" as="geometry">
            <mxPoint x="186" y="630" as="sourcePoint" />
            <mxPoint x="266" y="630" as="targetPoint" />
          </mxGeometry>
        </mxCell>
        <mxCell id="ypyRu91fWhCVWM4cFjnS-71" value="" style="endArrow=none;html=1;rounded=0;exitX=0.5;exitY=0;exitDx=0;exitDy=0;" parent="1" source="ypyRu91fWhCVWM4cFjnS-73" target="ypyRu91fWhCVWM4cFjnS-66" edge="1">
          <mxGeometry width="50" height="50" relative="1" as="geometry">
            <mxPoint x="6" y="730" as="sourcePoint" />
            <mxPoint x="6" y="690" as="targetPoint" />
          </mxGeometry>
        </mxCell>
        <mxCell id="ypyRu91fWhCVWM4cFjnS-72" value="" style="endArrow=none;html=1;rounded=0;exitX=0.5;exitY=0;exitDx=0;exitDy=0;" parent="1" source="ypyRu91fWhCVWM4cFjnS-74" target="ypyRu91fWhCVWM4cFjnS-66" edge="1">
          <mxGeometry width="50" height="50" relative="1" as="geometry">
            <mxPoint x="166" y="715" as="sourcePoint" />
            <mxPoint x="166" y="675" as="targetPoint" />
          </mxGeometry>
        </mxCell>
        <mxCell id="ypyRu91fWhCVWM4cFjnS-73" value="" style="ellipse;whiteSpace=wrap;html=1;aspect=fixed;" parent="1" vertex="1">
          <mxGeometry x="56" y="690" width="10" height="10" as="geometry" />
        </mxCell>
        <mxCell id="ypyRu91fWhCVWM4cFjnS-74" value="" style="ellipse;whiteSpace=wrap;html=1;aspect=fixed;" parent="1" vertex="1">
          <mxGeometry x="136" y="690" width="10" height="10" as="geometry" />
        </mxCell>
        <mxCell id="ypyRu91fWhCVWM4cFjnS-75" value="" style="endArrow=none;html=1;rounded=0;entryX=0.5;entryY=1;entryDx=0;entryDy=0;edgeStyle=orthogonalEdgeStyle;" parent="1" target="ypyRu91fWhCVWM4cFjnS-76" edge="1">
          <mxGeometry width="50" height="50" relative="1" as="geometry">
            <mxPoint x="110" y="670" as="sourcePoint" />
            <mxPoint x="206" y="610" as="targetPoint" />
            <Array as="points">
              <mxPoint x="201" y="670" />
            </Array>
          </mxGeometry>
        </mxCell>
        <mxCell id="ypyRu91fWhCVWM4cFjnS-76" value="" style="ellipse;whiteSpace=wrap;html=1;aspect=fixed;fillColor=#020203;" parent="1" vertex="1">
          <mxGeometry x="196" y="590" width="10" height="10" as="geometry" />
        </mxCell>
        <mxCell id="ypyRu91fWhCVWM4cFjnS-77" value="" style="endArrow=none;html=1;rounded=0;exitX=1;exitY=0;exitDx=0;exitDy=0;" parent="1" source="ypyRu91fWhCVWM4cFjnS-79" edge="1">
          <mxGeometry width="50" height="50" relative="1" as="geometry">
            <mxPoint x="431" y="730" as="sourcePoint" />
            <mxPoint x="512" y="650" as="targetPoint" />
          </mxGeometry>
        </mxCell>
        <mxCell id="ypyRu91fWhCVWM4cFjnS-78" value="" style="endArrow=none;html=1;rounded=0;exitX=0;exitY=0;exitDx=0;exitDy=0;" parent="1" source="ypyRu91fWhCVWM4cFjnS-80" edge="1">
          <mxGeometry width="50" height="50" relative="1" as="geometry">
            <mxPoint x="591" y="715" as="sourcePoint" />
            <mxPoint x="546" y="650" as="targetPoint" />
          </mxGeometry>
        </mxCell>
        <mxCell id="ypyRu91fWhCVWM4cFjnS-79" value="" style="ellipse;whiteSpace=wrap;html=1;aspect=fixed;" parent="1" vertex="1">
          <mxGeometry x="460" y="680" width="10" height="10" as="geometry" />
        </mxCell>
        <mxCell id="ypyRu91fWhCVWM4cFjnS-80" value="" style="ellipse;whiteSpace=wrap;html=1;aspect=fixed;fillColor=#000000;" parent="1" vertex="1">
          <mxGeometry x="585" y="680" width="10" height="10" as="geometry" />
        </mxCell>
        <mxCell id="ypyRu91fWhCVWM4cFjnS-81" value="Quantità" style="text;html=1;strokeColor=none;fillColor=none;align=center;verticalAlign=middle;whiteSpace=wrap;rounded=0;" parent="1" vertex="1">
          <mxGeometry x="31" y="700" width="55" height="20" as="geometry" />
        </mxCell>
        <mxCell id="ypyRu91fWhCVWM4cFjnS-82" value="Codice" style="text;html=1;strokeColor=none;fillColor=none;align=center;verticalAlign=middle;whiteSpace=wrap;rounded=0;" parent="1" vertex="1">
          <mxGeometry x="113.5" y="700" width="55" height="20" as="geometry" />
        </mxCell>
        <mxCell id="ypyRu91fWhCVWM4cFjnS-83" value="Nome comune" style="text;html=1;strokeColor=none;fillColor=none;align=center;verticalAlign=middle;whiteSpace=wrap;rounded=0;" parent="1" vertex="1">
          <mxGeometry x="425" y="690" width="60" height="30" as="geometry" />
        </mxCell>
        <mxCell id="ypyRu91fWhCVWM4cFjnS-84" value="Nome latino" style="text;html=1;strokeColor=none;fillColor=none;align=center;verticalAlign=middle;whiteSpace=wrap;rounded=0;" parent="1" vertex="1">
          <mxGeometry x="560" y="690" width="60" height="30" as="geometry" />
        </mxCell>
        <mxCell id="ypyRu91fWhCVWM4cFjnS-86" value="" style="html=1;endSize=12;endArrow=block;endFill=0;elbow=horizontal;rounded=0;labelBackgroundColor=default;fontFamily=Helvetica;fontSize=11;fontColor=default;shape=connector;" parent="1" target="ypyRu91fWhCVWM4cFjnS-68" edge="1">
          <mxGeometry x="1" relative="1" as="geometry">
            <mxPoint x="388.5" y="1020" as="targetPoint" />
            <mxPoint x="616.5" y="620" as="sourcePoint" />
          </mxGeometry>
        </mxCell>
        <mxCell id="ypyRu91fWhCVWM4cFjnS-87" value="" style="html=1;elbow=vertical;verticalAlign=bottom;endArrow=none;rounded=0;labelBackgroundColor=default;fontFamily=Helvetica;fontSize=11;fontColor=default;startSize=14;shape=connector;" parent="1" target="ypyRu91fWhCVWM4cFjnS-90" edge="1">
          <mxGeometry x="1" relative="1" as="geometry">
            <mxPoint x="538.5" y="940" as="targetPoint" />
            <mxPoint x="616.5" y="620" as="sourcePoint" />
          </mxGeometry>
        </mxCell>
        <mxCell id="ypyRu91fWhCVWM4cFjnS-88" value="" style="html=1;elbow=vertical;verticalAlign=bottom;endArrow=none;rounded=0;labelBackgroundColor=default;fontFamily=Helvetica;fontSize=11;fontColor=default;startSize=14;shape=connector;edgeStyle=orthogonalEdgeStyle;" parent="1" target="ypyRu91fWhCVWM4cFjnS-89" edge="1">
          <mxGeometry x="1" relative="1" as="geometry">
            <mxPoint x="388.5" y="940" as="targetPoint" />
            <mxPoint x="616.5" y="620" as="sourcePoint" />
            <Array as="points">
              <mxPoint x="617" y="621" />
              <mxPoint x="630" y="621" />
              <mxPoint x="630" y="710" />
            </Array>
          </mxGeometry>
        </mxCell>
        <mxCell id="ypyRu91fWhCVWM4cFjnS-89" value="Specie fiorita" style="whiteSpace=wrap;html=1;align=center;" parent="1" vertex="1">
          <mxGeometry x="678.5" y="680" width="140" height="60" as="geometry" />
        </mxCell>
        <mxCell id="ypyRu91fWhCVWM4cFjnS-90" value="Specie esotica" style="whiteSpace=wrap;html=1;align=center;" parent="1" vertex="1">
          <mxGeometry x="678" y="590" width="140" height="60" as="geometry" />
        </mxCell>
        <mxCell id="ypyRu91fWhCVWM4cFjnS-91" value="Specie&lt;br&gt;da interno" style="whiteSpace=wrap;html=1;align=center;" parent="1" vertex="1">
          <mxGeometry x="678.5" y="520" width="140" height="60" as="geometry" />
        </mxCell>
        <mxCell id="ypyRu91fWhCVWM4cFjnS-92" value="" style="endArrow=none;html=1;rounded=0;edgeStyle=orthogonalEdgeStyle;" parent="1" target="ypyRu91fWhCVWM4cFjnS-91" edge="1">
          <mxGeometry width="50" height="50" relative="1" as="geometry">
            <mxPoint x="616.5" y="620" as="sourcePoint" />
            <mxPoint x="238.5" y="940" as="targetPoint" />
            <Array as="points">
              <mxPoint x="617" y="621" />
              <mxPoint x="630" y="621" />
              <mxPoint x="630" y="560" />
            </Array>
          </mxGeometry>
        </mxCell>
        <mxCell id="ypyRu91fWhCVWM4cFjnS-93" value="" style="endArrow=none;html=1;rounded=0;exitX=0.5;exitY=0;exitDx=0;exitDy=0;" parent="1" source="ypyRu91fWhCVWM4cFjnS-94" target="ypyRu91fWhCVWM4cFjnS-89" edge="1">
          <mxGeometry width="50" height="50" relative="1" as="geometry">
            <mxPoint x="494.25" y="840" as="sourcePoint" />
            <mxPoint x="736.25" y="800" as="targetPoint" />
          </mxGeometry>
        </mxCell>
        <mxCell id="ypyRu91fWhCVWM4cFjnS-94" value="" style="ellipse;whiteSpace=wrap;html=1;aspect=fixed;" parent="1" vertex="1">
          <mxGeometry x="731.25" y="770" width="10" height="10" as="geometry" />
        </mxCell>
        <mxCell id="ypyRu91fWhCVWM4cFjnS-95" value="colore" style="text;html=1;strokeColor=none;fillColor=none;align=center;verticalAlign=middle;whiteSpace=wrap;rounded=0;" parent="1" vertex="1">
          <mxGeometry x="700.75" y="770" width="60" height="30" as="geometry" />
        </mxCell>
        <mxCell id="ypyRu91fWhCVWM4cFjnS-98" value="" style="endArrow=none;html=1;rounded=0;edgeStyle=orthogonalEdgeStyle;" parent="1" source="ypyRu91fWhCVWM4cFjnS-65" target="ypyRu91fWhCVWM4cFjnS-63" edge="1">
          <mxGeometry width="50" height="50" relative="1" as="geometry">
            <mxPoint x="590" y="520" as="sourcePoint" />
            <mxPoint x="640" y="470" as="targetPoint" />
          </mxGeometry>
        </mxCell>
        <mxCell id="ypyRu91fWhCVWM4cFjnS-100" value="rifornisce" style="shape=rhombus;perimeter=rhombusPerimeter;whiteSpace=wrap;html=1;align=center;" parent="1" vertex="1">
          <mxGeometry x="12" y="320" width="120" height="60" as="geometry" />
        </mxCell>
        <mxCell id="ypyRu91fWhCVWM4cFjnS-101" value="" style="endArrow=none;html=1;rounded=0;exitX=0.5;exitY=0;exitDx=0;exitDy=0;entryX=0;entryY=0.5;entryDx=0;entryDy=0;edgeStyle=orthogonalEdgeStyle;" parent="1" source="ypyRu91fWhCVWM4cFjnS-100" target="ypyRu91fWhCVWM4cFjnS-6" edge="1">
          <mxGeometry width="50" height="50" relative="1" as="geometry">
            <mxPoint x="50" y="250" as="sourcePoint" />
            <mxPoint x="100" y="200" as="targetPoint" />
          </mxGeometry>
        </mxCell>
        <mxCell id="ypyRu91fWhCVWM4cFjnS-102" value="" style="endArrow=none;html=1;rounded=0;entryX=0.5;entryY=1;entryDx=0;entryDy=0;exitX=0.25;exitY=0;exitDx=0;exitDy=0;" parent="1" source="ypyRu91fWhCVWM4cFjnS-66" target="ypyRu91fWhCVWM4cFjnS-100" edge="1">
          <mxGeometry width="50" height="50" relative="1" as="geometry">
            <mxPoint x="40" y="490" as="sourcePoint" />
            <mxPoint x="90" y="440" as="targetPoint" />
          </mxGeometry>
        </mxCell>
        <mxCell id="ypyRu91fWhCVWM4cFjnS-103" value="" style="endArrow=none;html=1;rounded=0;exitX=1;exitY=0.25;exitDx=0;exitDy=0;entryX=0;entryY=1;entryDx=0;entryDy=0;" parent="1" source="ypyRu91fWhCVWM4cFjnS-63" target="ypyRu91fWhCVWM4cFjnS-107" edge="1">
          <mxGeometry width="50" height="50" relative="1" as="geometry">
            <mxPoint x="604.75" y="390" as="sourcePoint" />
            <mxPoint x="624.75" y="380" as="targetPoint" />
          </mxGeometry>
        </mxCell>
        <mxCell id="ypyRu91fWhCVWM4cFjnS-104" value="" style="endArrow=none;html=1;rounded=0;exitX=1;exitY=0.5;exitDx=0;exitDy=0;entryX=0;entryY=0.5;entryDx=0;entryDy=0;" parent="1" source="ypyRu91fWhCVWM4cFjnS-63" target="ypyRu91fWhCVWM4cFjnS-108" edge="1">
          <mxGeometry width="50" height="50" relative="1" as="geometry">
            <mxPoint x="601.75" y="401" as="sourcePoint" />
            <mxPoint x="624.75" y="406" as="targetPoint" />
          </mxGeometry>
        </mxCell>
        <mxCell id="ypyRu91fWhCVWM4cFjnS-105" value="" style="endArrow=none;html=1;rounded=0;exitX=1;exitY=0.75;exitDx=0;exitDy=0;entryX=0;entryY=0.5;entryDx=0;entryDy=0;" parent="1" source="ypyRu91fWhCVWM4cFjnS-63" target="ypyRu91fWhCVWM4cFjnS-109" edge="1">
          <mxGeometry width="50" height="50" relative="1" as="geometry">
            <mxPoint x="604.75" y="480" as="sourcePoint" />
            <mxPoint x="624.75" y="430" as="targetPoint" />
          </mxGeometry>
        </mxCell>
        <mxCell id="ypyRu91fWhCVWM4cFjnS-107" value="" style="ellipse;whiteSpace=wrap;html=1;aspect=fixed;" parent="1" vertex="1">
          <mxGeometry x="626" y="370" width="10" height="10" as="geometry" />
        </mxCell>
        <mxCell id="ypyRu91fWhCVWM4cFjnS-108" value="" style="ellipse;whiteSpace=wrap;html=1;aspect=fixed;" parent="1" vertex="1">
          <mxGeometry x="628.25" y="401.1" width="10" height="10" as="geometry" />
        </mxCell>
        <mxCell id="ypyRu91fWhCVWM4cFjnS-109" value="" style="ellipse;whiteSpace=wrap;html=1;aspect=fixed;" parent="1" vertex="1">
          <mxGeometry x="628.25" y="426.1" width="10" height="10" as="geometry" />
        </mxCell>
        <mxCell id="ypyRu91fWhCVWM4cFjnS-110" value="Recapito" style="text;html=1;strokeColor=none;fillColor=none;align=center;verticalAlign=middle;whiteSpace=wrap;rounded=0;fontSize=10;" parent="1" vertex="1">
          <mxGeometry x="628.25" y="360" width="60" height="30" as="geometry" />
        </mxCell>
        <mxCell id="ypyRu91fWhCVWM4cFjnS-111" value="Nome" style="text;html=1;strokeColor=none;fillColor=none;align=center;verticalAlign=middle;whiteSpace=wrap;rounded=0;fontSize=10;" parent="1" vertex="1">
          <mxGeometry x="626" y="390" width="60" height="30" as="geometry" />
        </mxCell>
        <mxCell id="ypyRu91fWhCVWM4cFjnS-112" value="Cognome" style="text;html=1;strokeColor=none;fillColor=none;align=center;verticalAlign=middle;whiteSpace=wrap;rounded=0;fontSize=10;" parent="1" vertex="1">
          <mxGeometry x="636" y="420" width="60" height="30" as="geometry" />
        </mxCell>
        <mxCell id="ypyRu91fWhCVWM4cFjnS-113" value="" style="endArrow=none;html=1;rounded=0;exitX=1;exitY=1;exitDx=0;exitDy=0;entryX=0;entryY=0;entryDx=0;entryDy=0;" parent="1" source="ypyRu91fWhCVWM4cFjnS-63" target="ypyRu91fWhCVWM4cFjnS-114" edge="1">
          <mxGeometry width="50" height="50" relative="1" as="geometry">
            <mxPoint x="624.75" y="520" as="sourcePoint" />
            <mxPoint x="624.75" y="460" as="targetPoint" />
          </mxGeometry>
        </mxCell>
        <mxCell id="ypyRu91fWhCVWM4cFjnS-114" value="" style="ellipse;whiteSpace=wrap;html=1;aspect=fixed;" parent="1" vertex="1">
          <mxGeometry x="618.25" y="456.83000000000004" width="10" height="10" as="geometry" />
        </mxCell>
        <mxCell id="ypyRu91fWhCVWM4cFjnS-115" value="Quantità" style="text;html=1;strokeColor=none;fillColor=none;align=center;verticalAlign=middle;whiteSpace=wrap;rounded=0;fontSize=10;" parent="1" vertex="1">
          <mxGeometry x="618.25" y="450" width="60" height="30" as="geometry" />
        </mxCell>
        <mxCell id="ypyRu91fWhCVWM4cFjnS-116" value="" style="endArrow=none;html=1;rounded=0;exitX=1;exitY=0;exitDx=0;exitDy=0;entryX=0;entryY=1;entryDx=0;entryDy=0;" parent="1" source="ypyRu91fWhCVWM4cFjnS-63" target="ypyRu91fWhCVWM4cFjnS-117" edge="1">
          <mxGeometry width="50" height="50" relative="1" as="geometry">
            <mxPoint x="584.75" y="370" as="sourcePoint" />
            <mxPoint x="624.75" y="350" as="targetPoint" />
          </mxGeometry>
        </mxCell>
        <mxCell id="ypyRu91fWhCVWM4cFjnS-117" value="" style="ellipse;whiteSpace=wrap;html=1;aspect=fixed;" parent="1" vertex="1">
          <mxGeometry x="618.25" y="345" width="10" height="10" as="geometry" />
        </mxCell>
        <mxCell id="ypyRu91fWhCVWM4cFjnS-118" value="Specie" style="text;html=1;strokeColor=none;fillColor=none;align=center;verticalAlign=middle;whiteSpace=wrap;rounded=0;fontSize=10;" parent="1" vertex="1">
          <mxGeometry x="613.25" y="330" width="60" height="30" as="geometry" />
        </mxCell>
        <mxCell id="ypyRu91fWhCVWM4cFjnS-120" value="(1,N)" style="text;html=1;strokeColor=none;fillColor=none;align=center;verticalAlign=middle;whiteSpace=wrap;rounded=0;fontSize=10;" parent="1" vertex="1">
          <mxGeometry x="574.5" y="357.92999999999995" width="26.5" height="18.17" as="geometry" />
        </mxCell>
        <mxCell id="o7CWJk7R-f0jCdhxWgbM-4" value="" style="endArrow=none;html=1;rounded=0;exitX=0.75;exitY=0;exitDx=0;exitDy=0;entryX=0;entryY=1;entryDx=0;entryDy=0;" parent="1" source="ypyRu91fWhCVWM4cFjnS-63" target="o7CWJk7R-f0jCdhxWgbM-5" edge="1">
          <mxGeometry width="50" height="50" relative="1" as="geometry">
            <mxPoint x="564.75" y="350" as="sourcePoint" />
            <mxPoint x="574.75" y="330" as="targetPoint" />
          </mxGeometry>
        </mxCell>
        <mxCell id="o7CWJk7R-f0jCdhxWgbM-5" value="" style="ellipse;whiteSpace=wrap;html=1;aspect=fixed;fillColor=#000000;" parent="1" vertex="1">
          <mxGeometry x="583.25" y="325" width="10" height="10" as="geometry" />
        </mxCell>
        <mxCell id="o7CWJk7R-f0jCdhxWgbM-6" value="Codice ordine" style="text;html=1;strokeColor=none;fillColor=none;align=center;verticalAlign=middle;whiteSpace=wrap;rounded=0;fontSize=10;" parent="1" vertex="1">
          <mxGeometry x="576" y="300" width="60" height="30" as="geometry" />
        </mxCell>
        <mxCell id="wO8g0r4xwBjXsKr7sXgW-1" value="Prezzo" style="whiteSpace=wrap;html=1;align=center;" parent="1" vertex="1">
          <mxGeometry x="462" y="850" width="140" height="60" as="geometry" />
        </mxCell>
        <mxCell id="wO8g0r4xwBjXsKr7sXgW-4" value="valore" style="shape=rhombus;perimeter=rhombusPerimeter;whiteSpace=wrap;html=1;align=center;" parent="1" vertex="1">
          <mxGeometry x="472" y="730" width="120" height="60" as="geometry" />
        </mxCell>
        <mxCell id="wO8g0r4xwBjXsKr7sXgW-5" value="" style="endArrow=none;html=1;rounded=0;exitX=0.5;exitY=0;exitDx=0;exitDy=0;entryX=0.548;entryY=1.031;entryDx=0;entryDy=0;entryPerimeter=0;" parent="1" source="wO8g0r4xwBjXsKr7sXgW-4" target="ypyRu91fWhCVWM4cFjnS-68" edge="1">
          <mxGeometry width="50" height="50" relative="1" as="geometry">
            <mxPoint x="450" y="770" as="sourcePoint" />
            <mxPoint x="510" y="690" as="targetPoint" />
          </mxGeometry>
        </mxCell>
        <mxCell id="wO8g0r4xwBjXsKr7sXgW-6" value="" style="endArrow=none;html=1;rounded=0;exitX=0.5;exitY=0;exitDx=0;exitDy=0;entryX=0.5;entryY=1;entryDx=0;entryDy=0;" parent="1" source="wO8g0r4xwBjXsKr7sXgW-1" target="wO8g0r4xwBjXsKr7sXgW-4" edge="1">
          <mxGeometry width="50" height="50" relative="1" as="geometry">
            <mxPoint x="542" y="740" as="sourcePoint" />
            <mxPoint x="543" y="662" as="targetPoint" />
          </mxGeometry>
        </mxCell>
        <mxCell id="wO8g0r4xwBjXsKr7sXgW-7" value="" style="ellipse;whiteSpace=wrap;html=1;aspect=fixed;" parent="1" vertex="1">
          <mxGeometry x="640" y="870" width="10" height="10" as="geometry" />
        </mxCell>
        <mxCell id="wO8g0r4xwBjXsKr7sXgW-8" value="" style="ellipse;whiteSpace=wrap;html=1;aspect=fixed;" parent="1" vertex="1">
          <mxGeometry x="611.5" y="755" width="10" height="10" as="geometry" />
        </mxCell>
        <mxCell id="wO8g0r4xwBjXsKr7sXgW-9" value="" style="endArrow=none;html=1;rounded=0;exitX=1.009;exitY=0.437;exitDx=0;exitDy=0;entryX=0;entryY=0.5;entryDx=0;entryDy=0;exitPerimeter=0;" parent="1" source="wO8g0r4xwBjXsKr7sXgW-1" target="wO8g0r4xwBjXsKr7sXgW-7" edge="1">
          <mxGeometry width="50" height="50" relative="1" as="geometry">
            <mxPoint x="620" y="880" as="sourcePoint" />
            <mxPoint x="708" y="815" as="targetPoint" />
          </mxGeometry>
        </mxCell>
        <mxCell id="wO8g0r4xwBjXsKr7sXgW-10" value="" style="endArrow=none;html=1;rounded=0;exitX=1;exitY=0.5;exitDx=0;exitDy=0;entryX=0;entryY=0.5;entryDx=0;entryDy=0;" parent="1" source="wO8g0r4xwBjXsKr7sXgW-4" target="wO8g0r4xwBjXsKr7sXgW-8" edge="1">
          <mxGeometry width="50" height="50" relative="1" as="geometry">
            <mxPoint x="591.5" y="755" as="sourcePoint" />
            <mxPoint x="673.5" y="725" as="targetPoint" />
          </mxGeometry>
        </mxCell>
        <mxCell id="wO8g0r4xwBjXsKr7sXgW-11" value="costo" style="text;html=1;strokeColor=none;fillColor=none;align=center;verticalAlign=middle;whiteSpace=wrap;rounded=0;" parent="1" vertex="1">
          <mxGeometry x="636" y="860" width="60" height="30" as="geometry" />
        </mxCell>
        <mxCell id="wO8g0r4xwBjXsKr7sXgW-12" value="data aggiornamento" style="text;html=1;strokeColor=none;fillColor=none;align=center;verticalAlign=middle;whiteSpace=wrap;rounded=0;" parent="1" vertex="1">
          <mxGeometry x="594" y="770" width="45" height="15" as="geometry" />
        </mxCell>
        <mxCell id="HELM5k4SkzNro_kpixjT-1" value="" style="ellipse;whiteSpace=wrap;html=1;aspect=fixed;fillColor=#000000;" parent="1" vertex="1">
          <mxGeometry x="490" y="830" width="10" height="10" as="geometry" />
        </mxCell>
        <mxCell id="HELM5k4SkzNro_kpixjT-2" value="" style="endArrow=none;html=1;rounded=0;exitX=1;exitY=0.5;exitDx=0;exitDy=0;edgeStyle=orthogonalEdgeStyle;" parent="1" source="HELM5k4SkzNro_kpixjT-1" edge="1">
          <mxGeometry width="50" height="50" relative="1" as="geometry">
            <mxPoint x="540" y="850" as="sourcePoint" />
            <mxPoint x="620" y="900" as="targetPoint" />
            <Array as="points">
              <mxPoint x="620" y="835" />
              <mxPoint x="620" y="900" />
            </Array>
          </mxGeometry>
        </mxCell>
        <mxCell id="H7GiZUd_JZlqyYl14615-6" value="" style="endArrow=none;html=1;rounded=0;exitX=0.75;exitY=1;exitDx=0;exitDy=0;entryX=0;entryY=0;entryDx=0;entryDy=0;" parent="1" source="ypyRu91fWhCVWM4cFjnS-63" target="JTugQuJ5d3VKlzc3wUW5-1" edge="1">
          <mxGeometry width="50" height="50" relative="1" as="geometry">
            <mxPoint x="636.5" y="531" as="sourcePoint" />
            <mxPoint x="602.4644660940673" y="488.2944660940673" as="targetPoint" />
          </mxGeometry>
        </mxCell>
        <mxCell id="H7GiZUd_JZlqyYl14615-7" value="Stato" style="text;html=1;strokeColor=none;fillColor=none;align=center;verticalAlign=middle;whiteSpace=wrap;rounded=0;fontSize=10;" parent="1" vertex="1">
          <mxGeometry x="593.25" y="471.83" width="60" height="30" as="geometry" />
        </mxCell>
        <mxCell id="H7GiZUd_JZlqyYl14615-10" value="&lt;p style=&quot;line-height: 70%; font-size: 10px;&quot;&gt;(1,N)&lt;/p&gt;" style="text;html=1;strokeColor=none;fillColor=none;align=center;verticalAlign=middle;whiteSpace=wrap;rounded=0;fontSize=10;" parent="1" vertex="1">
          <mxGeometry x="113" y="170.1" width="28" height="26" as="geometry" />
        </mxCell>
        <mxCell id="H7GiZUd_JZlqyYl14615-11" value="&lt;p style=&quot;line-height: 70%; font-size: 10px;&quot;&gt;(1,N)&lt;/p&gt;" style="text;html=1;strokeColor=none;fillColor=none;align=center;verticalAlign=middle;whiteSpace=wrap;rounded=0;fontSize=10;" parent="1" vertex="1">
          <mxGeometry x="44.5" y="569" width="28" height="26" as="geometry" />
        </mxCell>
        <mxCell id="H7GiZUd_JZlqyYl14615-12" value="&lt;p style=&quot;line-height: 70%; font-size: 10px;&quot;&gt;(1,1)&lt;/p&gt;" style="text;html=1;strokeColor=none;fillColor=none;align=center;verticalAlign=middle;whiteSpace=wrap;rounded=0;fontSize=10;" parent="1" vertex="1">
          <mxGeometry x="425" y="600" width="28" height="26" as="geometry" />
        </mxCell>
        <mxCell id="H7GiZUd_JZlqyYl14615-13" value="&lt;p style=&quot;line-height: 70%; font-size: 10px;&quot;&gt;(1,N)&lt;/p&gt;" style="text;html=1;strokeColor=none;fillColor=none;align=center;verticalAlign=middle;whiteSpace=wrap;rounded=0;fontSize=10;" parent="1" vertex="1">
          <mxGeometry x="204" y="600" width="28" height="26" as="geometry" />
        </mxCell>
        <mxCell id="H7GiZUd_JZlqyYl14615-14" value="&lt;p style=&quot;line-height: 70%; font-size: 10px;&quot;&gt;(1,N)&lt;/p&gt;" style="text;html=1;strokeColor=none;fillColor=none;align=center;verticalAlign=middle;whiteSpace=wrap;rounded=0;fontSize=10;" parent="1" vertex="1">
          <mxGeometry x="498.5" y="574" width="26" height="16" as="geometry" />
        </mxCell>
        <mxCell id="H7GiZUd_JZlqyYl14615-15" value="&lt;p style=&quot;line-height: 70%; font-size: 10px;&quot;&gt;(1,N)&lt;/p&gt;" style="text;html=1;strokeColor=none;fillColor=none;align=center;verticalAlign=middle;whiteSpace=wrap;rounded=0;fontSize=10;" parent="1" vertex="1">
          <mxGeometry x="500.75" y="436.1" width="26" height="16" as="geometry" />
        </mxCell>
        <mxCell id="H7GiZUd_JZlqyYl14615-17" value="" style="endArrow=none;html=1;rounded=0;exitX=0.936;exitY=0.005;exitDx=0;exitDy=0;exitPerimeter=0;" parent="1" source="ypyRu91fWhCVWM4cFjnS-7" target="ypyRu91fWhCVWM4cFjnS-17" edge="1">
          <mxGeometry width="50" height="50" relative="1" as="geometry">
            <mxPoint x="450" y="150" as="sourcePoint" />
            <mxPoint x="460" y="120" as="targetPoint" />
          </mxGeometry>
        </mxCell>
        <mxCell id="ypyRu91fWhCVWM4cFjnS-17" value="" style="ellipse;whiteSpace=wrap;html=1;aspect=fixed;fillColor=#121111;" parent="1" vertex="1">
          <mxGeometry x="456" y="111.10000000000002" width="10" height="10" as="geometry" />
        </mxCell>
        <mxCell id="H7GiZUd_JZlqyYl14615-18" value="" style="endArrow=none;html=1;rounded=0;entryX=1;entryY=0.5;entryDx=0;entryDy=0;exitX=0.5;exitY=0;exitDx=0;exitDy=0;edgeStyle=orthogonalEdgeStyle;" parent="1" source="ypyRu91fWhCVWM4cFjnS-61" target="ypyRu91fWhCVWM4cFjnS-7" edge="1">
          <mxGeometry width="50" height="50" relative="1" as="geometry">
            <mxPoint x="595.97" y="249.1" as="sourcePoint" />
            <mxPoint x="570.97" y="204.1" as="targetPoint" />
          </mxGeometry>
        </mxCell>
        <mxCell id="H7GiZUd_JZlqyYl14615-19" value="&lt;p style=&quot;line-height: 70%; font-size: 10px;&quot;&gt;(1,1)&lt;/p&gt;" style="text;html=1;strokeColor=none;fillColor=none;align=center;verticalAlign=middle;whiteSpace=wrap;rounded=0;fontSize=10;" parent="1" vertex="1">
          <mxGeometry x="502" y="650" width="28" height="26" as="geometry" />
        </mxCell>
        <mxCell id="H7GiZUd_JZlqyYl14615-21" value="&lt;p style=&quot;line-height: 70%; font-size: 10px;&quot;&gt;(1,N)&lt;/p&gt;" style="text;html=1;strokeColor=none;fillColor=none;align=center;verticalAlign=middle;whiteSpace=wrap;rounded=0;fontSize=10;" parent="1" vertex="1">
          <mxGeometry x="532" y="814" width="28" height="26" as="geometry" />
        </mxCell>
        <mxCell id="H7GiZUd_JZlqyYl14615-22" value="&lt;p style=&quot;line-height: 70%; font-size: 10px;&quot;&gt;(1,N)&lt;/p&gt;" style="text;html=1;strokeColor=none;fillColor=none;align=center;verticalAlign=middle;whiteSpace=wrap;rounded=0;fontSize=10;" parent="1" vertex="1">
          <mxGeometry x="467" y="195.10000000000002" width="26" height="16" as="geometry" />
        </mxCell>
        <mxCell id="H7GiZUd_JZlqyYl14615-23" value="&lt;p style=&quot;line-height: 70%; font-size: 10px;&quot;&gt;(1,N)&lt;/p&gt;" style="text;html=1;strokeColor=none;fillColor=none;align=center;verticalAlign=middle;whiteSpace=wrap;rounded=0;fontSize=10;" parent="1" vertex="1">
          <mxGeometry x="498.75" y="240.10000000000002" width="26" height="16" as="geometry" />
        </mxCell>
        <mxCell id="H7GiZUd_JZlqyYl14615-24" value="&lt;p style=&quot;line-height: 70%; font-size: 10px;&quot;&gt;(1,N)&lt;/p&gt;" style="text;html=1;strokeColor=none;fillColor=none;align=center;verticalAlign=middle;whiteSpace=wrap;rounded=0;fontSize=10;" parent="1" vertex="1">
          <mxGeometry x="432" y="144.10000000000002" width="26" height="16" as="geometry" />
        </mxCell>
        <mxCell id="H7GiZUd_JZlqyYl14615-25" value="&lt;p style=&quot;line-height: 70%; font-size: 10px;&quot;&gt;(1,N)&lt;/p&gt;" style="text;html=1;strokeColor=none;fillColor=none;align=center;verticalAlign=middle;whiteSpace=wrap;rounded=0;fontSize=10;" parent="1" vertex="1">
          <mxGeometry x="603.5" y="135.10000000000002" width="26" height="16" as="geometry" />
        </mxCell>
        <mxCell id="H7GiZUd_JZlqyYl14615-26" value="&lt;p style=&quot;line-height: 70%; font-size: 10px;&quot;&gt;(1,N)&lt;/p&gt;" style="text;html=1;strokeColor=none;fillColor=none;align=center;verticalAlign=middle;whiteSpace=wrap;rounded=0;fontSize=10;" parent="1" vertex="1">
          <mxGeometry x="341" y="225.10000000000002" width="26" height="16" as="geometry" />
        </mxCell>
        <mxCell id="H7GiZUd_JZlqyYl14615-27" value="&lt;p style=&quot;line-height: 70%; font-size: 10px;&quot;&gt;(1,1)&lt;/p&gt;" style="text;html=1;strokeColor=none;fillColor=none;align=center;verticalAlign=middle;whiteSpace=wrap;rounded=0;fontSize=10;" parent="1" vertex="1">
          <mxGeometry x="304" y="370" width="26" height="16" as="geometry" />
        </mxCell>
        <mxCell id="JTugQuJ5d3VKlzc3wUW5-1" value="" style="ellipse;whiteSpace=wrap;html=1;aspect=fixed;" parent="1" vertex="1">
          <mxGeometry x="601" y="481.83000000000004" width="10" height="10" as="geometry" />
        </mxCell>
        <mxCell id="RRbdjUjPsb0lRJEbSuiw-1" value="Gestore" style="whiteSpace=wrap;html=1;align=center;" parent="1" vertex="1">
          <mxGeometry x="212.5" y="-215" width="130" height="60" as="geometry" />
        </mxCell>
        <mxCell id="RRbdjUjPsb0lRJEbSuiw-2" value="" style="endArrow=none;html=1;rounded=0;entryX=1;entryY=1;entryDx=0;entryDy=0;exitX=0;exitY=0.25;exitDx=0;exitDy=0;" parent="1" source="RRbdjUjPsb0lRJEbSuiw-1" target="RRbdjUjPsb0lRJEbSuiw-4" edge="1">
          <mxGeometry width="50" height="50" relative="1" as="geometry">
            <mxPoint x="157.26839263091267" y="-325" as="sourcePoint" />
            <mxPoint x="157.64" y="-300" as="targetPoint" />
          </mxGeometry>
        </mxCell>
        <mxCell id="RRbdjUjPsb0lRJEbSuiw-3" value="" style="endArrow=none;html=1;rounded=0;entryX=1;entryY=0.5;entryDx=0;entryDy=0;exitX=0;exitY=0.75;exitDx=0;exitDy=0;" parent="1" source="RRbdjUjPsb0lRJEbSuiw-1" target="RRbdjUjPsb0lRJEbSuiw-5" edge="1">
          <mxGeometry width="50" height="50" relative="1" as="geometry">
            <mxPoint x="161.3599999999998" y="-325" as="sourcePoint" />
            <mxPoint x="237.64" y="-300" as="targetPoint" />
          </mxGeometry>
        </mxCell>
        <mxCell id="RRbdjUjPsb0lRJEbSuiw-4" value="" style="ellipse;whiteSpace=wrap;html=1;aspect=fixed;" parent="1" vertex="1">
          <mxGeometry x="187.5" y="-205" width="10" height="10" as="geometry" />
        </mxCell>
        <mxCell id="RRbdjUjPsb0lRJEbSuiw-5" value="" style="ellipse;whiteSpace=wrap;html=1;aspect=fixed;" parent="1" vertex="1">
          <mxGeometry x="183.5" y="-180" width="10" height="10" as="geometry" />
        </mxCell>
        <mxCell id="RRbdjUjPsb0lRJEbSuiw-6" value="Nome" style="text;html=1;strokeColor=none;fillColor=none;align=center;verticalAlign=middle;whiteSpace=wrap;rounded=0;" parent="1" vertex="1">
          <mxGeometry x="153.5" y="-215" width="35" height="20" as="geometry" />
        </mxCell>
        <mxCell id="RRbdjUjPsb0lRJEbSuiw-7" value="Cognome" style="text;html=1;strokeColor=none;fillColor=none;align=center;verticalAlign=middle;whiteSpace=wrap;rounded=0;" parent="1" vertex="1">
          <mxGeometry x="127.5" y="-190" width="60" height="30" as="geometry" />
        </mxCell>
        <mxCell id="RRbdjUjPsb0lRJEbSuiw-8" style="edgeStyle=orthogonalEdgeStyle;rounded=0;orthogonalLoop=1;jettySize=auto;html=1;exitX=0.5;exitY=0;exitDx=0;exitDy=0;entryX=0.5;entryY=1;entryDx=0;entryDy=0;" parent="1" source="RRbdjUjPsb0lRJEbSuiw-9" target="RRbdjUjPsb0lRJEbSuiw-1" edge="1">
          <mxGeometry relative="1" as="geometry" />
        </mxCell>
        <mxCell id="RRbdjUjPsb0lRJEbSuiw-9" value="Fornitore" style="whiteSpace=wrap;html=1;align=center;" parent="1" vertex="1">
          <mxGeometry x="127.5" y="-90" width="130" height="60" as="geometry" />
        </mxCell>
        <mxCell id="RRbdjUjPsb0lRJEbSuiw-10" value="Referente" style="whiteSpace=wrap;html=1;align=center;" parent="1" vertex="1">
          <mxGeometry x="302.5" y="-90" width="130" height="60" as="geometry" />
        </mxCell>
        <mxCell id="RRbdjUjPsb0lRJEbSuiw-11" value="" style="ellipse;whiteSpace=wrap;html=1;aspect=fixed;fillColor=#121111;" parent="1" vertex="1">
          <mxGeometry x="86.5" y="-80" width="10" height="10" as="geometry" />
        </mxCell>
        <mxCell id="RRbdjUjPsb0lRJEbSuiw-12" value="" style="ellipse;whiteSpace=wrap;html=1;aspect=fixed;" parent="1" vertex="1">
          <mxGeometry x="96.5" y="-15" width="10" height="10" as="geometry" />
        </mxCell>
        <mxCell id="RRbdjUjPsb0lRJEbSuiw-13" value="" style="endArrow=none;html=1;rounded=0;exitX=1;exitY=0.5;exitDx=0;exitDy=0;" parent="1" source="RRbdjUjPsb0lRJEbSuiw-11" target="RRbdjUjPsb0lRJEbSuiw-9" edge="1">
          <mxGeometry width="50" height="50" relative="1" as="geometry">
            <mxPoint x="-22.5" y="40" as="sourcePoint" />
            <mxPoint x="171.5" y="10" as="targetPoint" />
          </mxGeometry>
        </mxCell>
        <mxCell id="RRbdjUjPsb0lRJEbSuiw-14" value="" style="endArrow=none;html=1;rounded=0;exitX=1;exitY=0;exitDx=0;exitDy=0;" parent="1" source="RRbdjUjPsb0lRJEbSuiw-12" target="RRbdjUjPsb0lRJEbSuiw-9" edge="1">
          <mxGeometry width="50" height="50" relative="1" as="geometry">
            <mxPoint x="37.5" y="40" as="sourcePoint" />
            <mxPoint x="171.5" y="40" as="targetPoint" />
          </mxGeometry>
        </mxCell>
        <mxCell id="RRbdjUjPsb0lRJEbSuiw-15" value="CF" style="text;html=1;strokeColor=none;fillColor=none;align=center;verticalAlign=middle;whiteSpace=wrap;rounded=0;" parent="1" vertex="1">
          <mxGeometry x="46.5" y="-90" width="60" height="30" as="geometry" />
        </mxCell>
        <mxCell id="RRbdjUjPsb0lRJEbSuiw-16" value="Sedi" style="text;html=1;strokeColor=none;fillColor=none;align=center;verticalAlign=middle;whiteSpace=wrap;rounded=0;" parent="1" vertex="1">
          <mxGeometry x="53" y="-25" width="60" height="30" as="geometry" />
        </mxCell>
        <mxCell id="RRbdjUjPsb0lRJEbSuiw-17" value="(1,N)" style="text;html=1;strokeColor=none;fillColor=none;align=center;verticalAlign=middle;whiteSpace=wrap;rounded=0;" parent="1" vertex="1">
          <mxGeometry x="89.5" y="-35" width="29" height="20" as="geometry" />
        </mxCell>
        <mxCell id="RRbdjUjPsb0lRJEbSuiw-18" value="" style="endArrow=none;html=1;rounded=0;entryX=0.5;entryY=0;entryDx=0;entryDy=0;exitX=0.5;exitY=1;exitDx=0;exitDy=0;edgeStyle=orthogonalEdgeStyle;" parent="1" source="RRbdjUjPsb0lRJEbSuiw-1" target="RRbdjUjPsb0lRJEbSuiw-10" edge="1">
          <mxGeometry width="50" height="50" relative="1" as="geometry">
            <mxPoint x="280.5" y="-125" as="sourcePoint" />
            <mxPoint x="400.5" y="-165" as="targetPoint" />
          </mxGeometry>
        </mxCell>
        <mxCell id="RRbdjUjPsb0lRJEbSuiw-19" value="riferisce per" style="shape=rhombus;perimeter=rhombusPerimeter;whiteSpace=wrap;html=1;align=center;" parent="1" vertex="1">
          <mxGeometry x="318.5" y="25" width="120" height="60" as="geometry" />
        </mxCell>
        <mxCell id="RRbdjUjPsb0lRJEbSuiw-20" value="amministra" style="shape=rhombus;perimeter=rhombusPerimeter;whiteSpace=wrap;html=1;align=center;" parent="1" vertex="1">
          <mxGeometry x="123.5" y="25" width="120" height="60" as="geometry" />
        </mxCell>
        <mxCell id="RRbdjUjPsb0lRJEbSuiw-21" value="" style="endArrow=none;html=1;rounded=0;exitX=0.5;exitY=0;exitDx=0;exitDy=0;entryX=0.433;entryY=0.993;entryDx=0;entryDy=0;entryPerimeter=0;" parent="1" source="RRbdjUjPsb0lRJEbSuiw-20" target="RRbdjUjPsb0lRJEbSuiw-9" edge="1">
          <mxGeometry width="50" height="50" relative="1" as="geometry">
            <mxPoint x="266.5" y="45" as="sourcePoint" />
            <mxPoint x="316.5" y="-5" as="targetPoint" />
          </mxGeometry>
        </mxCell>
        <mxCell id="RRbdjUjPsb0lRJEbSuiw-22" value="" style="endArrow=none;html=1;rounded=0;exitX=0.5;exitY=0;exitDx=0;exitDy=0;entryX=0.577;entryY=1.012;entryDx=0;entryDy=0;entryPerimeter=0;" parent="1" source="RRbdjUjPsb0lRJEbSuiw-19" target="RRbdjUjPsb0lRJEbSuiw-10" edge="1">
          <mxGeometry width="50" height="50" relative="1" as="geometry">
            <mxPoint x="193.5" y="35" as="sourcePoint" />
            <mxPoint x="193.5" y="-20" as="targetPoint" />
          </mxGeometry>
        </mxCell>
        <mxCell id="RRbdjUjPsb0lRJEbSuiw-23" value="" style="endArrow=none;html=1;rounded=0;exitX=0.5;exitY=1;exitDx=0;exitDy=0;entryX=0.25;entryY=0;entryDx=0;entryDy=0;edgeStyle=orthogonalEdgeStyle;" parent="1" source="RRbdjUjPsb0lRJEbSuiw-20" target="ypyRu91fWhCVWM4cFjnS-6" edge="1">
          <mxGeometry width="50" height="50" relative="1" as="geometry">
            <mxPoint x="213" y="-100" as="sourcePoint" />
            <mxPoint x="203" y="11" as="targetPoint" />
          </mxGeometry>
        </mxCell>
        <mxCell id="RRbdjUjPsb0lRJEbSuiw-24" value="" style="endArrow=none;html=1;rounded=0;exitX=0.5;exitY=1;exitDx=0;exitDy=0;entryX=0.605;entryY=-0.035;entryDx=0;entryDy=0;entryPerimeter=0;edgeStyle=orthogonalEdgeStyle;" parent="1" source="RRbdjUjPsb0lRJEbSuiw-19" target="ypyRu91fWhCVWM4cFjnS-7" edge="1">
          <mxGeometry width="50" height="50" relative="1" as="geometry">
            <mxPoint x="338" y="-70" as="sourcePoint" />
            <mxPoint x="398" y="11" as="targetPoint" />
          </mxGeometry>
        </mxCell>
        <mxCell id="RRbdjUjPsb0lRJEbSuiw-26" value="&lt;font style=&quot;font-size: 9px;&quot;&gt;(1,N)&lt;/font&gt;" style="text;html=1;strokeColor=none;fillColor=none;align=center;verticalAlign=middle;whiteSpace=wrap;rounded=0;" parent="1" vertex="1">
          <mxGeometry x="390" y="142.10000000000002" width="24" height="20" as="geometry" />
        </mxCell>
        <mxCell id="RRbdjUjPsb0lRJEbSuiw-27" value="&lt;font style=&quot;font-size: 9px;&quot;&gt;(1,1)&lt;/font&gt;" style="text;html=1;strokeColor=none;fillColor=none;align=center;verticalAlign=middle;whiteSpace=wrap;rounded=0;" parent="1" vertex="1">
          <mxGeometry x="352.5" y="-34.99999999999997" width="24" height="20" as="geometry" />
        </mxCell>
        <mxCell id="RRbdjUjPsb0lRJEbSuiw-28" value="&lt;font style=&quot;font-size: 9px;&quot;&gt;(1,1)&lt;/font&gt;" style="text;html=1;strokeColor=none;fillColor=none;align=center;verticalAlign=middle;whiteSpace=wrap;rounded=0;" parent="1" vertex="1">
          <mxGeometry x="183.5" y="-34.99999999999997" width="24" height="20" as="geometry" />
        </mxCell>
        <mxCell id="RRbdjUjPsb0lRJEbSuiw-29" value="&lt;font style=&quot;font-size: 9px;&quot;&gt;(1,N)&lt;/font&gt;" style="text;html=1;strokeColor=none;fillColor=none;align=center;verticalAlign=middle;whiteSpace=wrap;rounded=0;" parent="1" vertex="1">
          <mxGeometry x="149" y="143.10000000000002" width="24" height="20" as="geometry" />
        </mxCell>
        <mxCell id="RRbdjUjPsb0lRJEbSuiw-30" value="" style="endArrow=none;html=1;rounded=0;exitX=1;exitY=0.5;exitDx=0;exitDy=0;" parent="1" source="RRbdjUjPsb0lRJEbSuiw-31" edge="1">
          <mxGeometry width="50" height="50" relative="1" as="geometry">
            <mxPoint x="391.5" y="5" as="sourcePoint" />
            <mxPoint x="426.5" y="-10" as="targetPoint" />
          </mxGeometry>
        </mxCell>
        <mxCell id="RRbdjUjPsb0lRJEbSuiw-31" value="" style="ellipse;whiteSpace=wrap;html=1;aspect=fixed;fillColor=#000000;" parent="1" vertex="1">
          <mxGeometry x="342.5" y="-15" width="10" height="10" as="geometry" />
        </mxCell>
        <mxCell id="RRbdjUjPsb0lRJEbSuiw-32" value="" style="endArrow=none;html=1;rounded=0;entryX=0.5;entryY=1;entryDx=0;entryDy=0;exitX=0.5;exitY=0;exitDx=0;exitDy=0;" parent="1" source="ypyRu91fWhCVWM4cFjnS-68" target="ypyRu91fWhCVWM4cFjnS-65" edge="1">
          <mxGeometry width="50" height="50" relative="1" as="geometry">
            <mxPoint x="540" y="610" as="sourcePoint" />
            <mxPoint x="590" y="560" as="targetPoint" />
          </mxGeometry>
        </mxCell>
        <mxCell id="9KnKAVgmEalBvLZPkiYI-1" value="(1,N)" style="text;html=1;strokeColor=none;fillColor=none;align=center;verticalAlign=middle;whiteSpace=wrap;rounded=0;fontSize=10;" vertex="1" parent="1">
          <mxGeometry x="574.5" y="435.02" width="26.5" height="18.17" as="geometry" />
        </mxCell>
      </root>
    </mxGraphModel>
  </diagram>
</mxfile>
